Coordinates
version=1
nRows=6
nColumns=34
inDegrees=yes

Units are S.I. units (second, meters, Newtons, ...)
If the header above contains a line with 'inDegrees', this indicates whether rotational values are in degrees (yes) or radians (no).

endheader
time	pelvis_tilt	pelvis_list	pelvis_rotation	pelvis_tx	pelvis_ty	pelvis_tz	hip_flexion_r	hip_adduction_r	hip_rotation_r	knee_angle_r	ankle_angle_r	subtalar_angle_r	mtp_angle_r	hip_flexion_l	hip_adduction_l	hip_rotation_l	knee_angle_l	ankle_angle_l	subtalar_angle_l	mtp_angle_l	lumbar_extension	lumbar_bending	lumbar_rotation	arm_flex_r	arm_add_r	arm_rot_r	elbow_flex_r	pro_sup_r	arm_flex_l	arm_add_l	arm_rot_l	elbow_flex_l	pro_sup_l
      4.35000000	    -29.33367326	      5.84290058	     -7.32227738	      0.87960645	      0.94544871	     -0.06639822	     48.03680071	     -1.38054876	      4.79227560	     44.60337662	      1.78218279	    -35.00000000	      0.00000000	     51.81537742	      1.43474166	      1.28219604	     46.71290525	      0.19313299	    -25.34336289	      0.00000000	      3.15661421	      0.87472127	      2.58456380	    167.08625065	    -71.31848825	    113.98517914	     71.86491390	     77.94487593	    345.25287137	   -121.86605781	    299.31966794	     93.42405800	     69.89652980
      4.36666670	    -28.79468352	      5.72795852	     -7.06474969	      0.89673192	      0.98960330	     -0.06629316	     42.29261693	     -2.73220108	      2.43449885	     34.36238203	     -6.82684318	    -29.97477384	      0.00000000	     45.84773632	      1.06724057	      0.42970925	     36.28330383	     -8.96963881	    -22.68696685	      0.00000000	      5.81197993	      1.26077735	      1.72545171	    165.38064126	    -70.87676102	    119.69781916	     64.60991567	     77.27895844	    345.15930562	   -120.30786761	    306.14792228	     90.99426972	     69.70845752
      4.38333330	    -28.06666404	      5.92593180	     -6.88741302	      0.92703479	      1.03542208	     -0.06012761	     35.37951046	     -4.26879216	     -0.56868180	     22.53532614	    -18.82129780	    -21.58562672	      0.00000000	     38.71897628	      0.60290117	     -1.38847386	     24.06470296	    -21.06781834	    -16.81222889	      0.00000000	      7.39051306	      1.15903508	     -0.26630810	    168.25230738	    -71.74693005	    132.13889658	     61.76358921	     73.66578778	    356.96438447	   -116.84416377	    323.21781020	     94.30028101	     69.69787628
      4.40000000	    -28.08883563	      6.29467181	     -6.55618280	      0.93875485	      1.06647235	     -0.05837147	     30.61883426	     -5.51089509	     -4.53561572	     12.13316813	    -32.57463251	    -13.41396826	      0.00000000	     33.54797069	      0.25155717	     -4.42456463	     13.24006248	    -36.35230356	    -11.02226703	      0.00000000	     10.08250896	      0.47914682	     -1.60518003	    168.27578850	    -72.78569639	    143.17709187	     57.62392710	     68.55475239	    363.81600030	   -115.03696676	    335.87665754	     93.87644319	     68.16560274
      4.41666670	    -27.74067996	      6.97149390	     -6.27241646	      0.95824858	      1.12376776	     -0.05358462	     26.45150895	     -6.59152406	     -8.78170221	      4.01284531	    -41.96174461	     -6.15348302	      0.00000000	     29.11666957	      0.45903318	     -8.85353941	      5.24101125	    -44.39865541	     -4.65148538	      0.00000000	     11.87818762	     -1.09294315	     -1.63982100	    167.18214291	    -78.65611327	    148.94444563	     54.46350241	     67.21177782	    365.67055001	   -111.93154577	    343.68186256	     93.16066944	     68.35859686
      4.43333330	    -27.89881652	      7.25755061	     -5.70057061	      0.96709380	      1.15656505	     -0.05187375	     24.21801254	     -7.00430631	    -11.04550670	      0.00000000	    -47.34246937	     -3.81073714	      0.00000000	     26.58409323	      0.25990664	    -10.79488908	      2.26687334	    -48.25389836	     -3.14067962	      0.00000000	     12.08147418	     -1.97598333	     -4.50490447	    169.42643820	    -82.48697689	    159.97300053	     56.82406334	     60.28799697	    386.30987369	   -110.79577841	    367.70177505	     93.38388534	     68.03195229
